<?xml version="1.0" encoding="UTF-8" standalone="no"?>
<!DOCTYPE svg PUBLIC "-//W3C//DTD SVG 1.1//EN" "http://www.w3.org/Graphics/SVG/1.1/DTD/svg11.dtd">
<!-- Generated by Microsoft Visio, SVG Export Scientific Research.svg Page-1 -->
<svg xmlns="http://www.w3.org/2000/svg" xmlns:xlink="http://www.w3.org/1999/xlink" xmlns:ev="http://www.w3.org/2001/xml-events"
		width="6.3582in" height="3.7583in" viewBox="0 0 640.906 378.837" xml:space="preserve" color-interpolation-filters="sRGB"
		class="st11">
	<style type="text/css">
	<![CDATA[
		.st1 {marker-end:url(#mrkr4-6);stroke:#2a4952;stroke-linecap:round;stroke-linejoin:round;stroke-width:4.5}
		.st2 {fill:#2a4952;fill-opacity:1;stroke:#2a4952;stroke-opacity:1;stroke-width:0.64102564102564}
		.st3 {fill:#ffffff;stroke:none;stroke-linecap:butt;stroke-width:7.2}
		.st4 {fill:#182d34;font-family:Spotlight;font-size:2.50001em}
		.st5 {font-size:1em}
		.st6 {fill:#182d34;stroke:#c7c8c8;stroke-width:0.25}
		.st7 {fill:#feffff;font-family:Spotlight;font-size:4.00001em}
		.st8 {fill:none;stroke:none;stroke-width:0.25}
		.st9 {fill:#182d34;font-family:Spotlight;font-size:4.99999em}
		.st10 {font-size:1em;text-decoration:underline}
		.st11 {fill:none;fill-rule:evenodd;font-size:12px;overflow:visible;stroke-linecap:square;stroke-miterlimit:3}
	]]>
	</style>

	<defs id="Markers">
		<g id="lend4">
			<path d="M 2 1 L 0 0 L 2 -1 L 2 1 " style="stroke:none"/>
		</g>
		<marker id="mrkr4-6" class="st2" refX="-3.12" orient="auto" markerUnits="strokeWidth" overflow="visible">
			<use xlink:href="#lend4" transform="scale(-1.56,-1.56) "/>
		</marker>
	</defs>
	<g>
		<title>Page-1</title>
		<g id="shape2-1" transform="translate(469.797,-242.847)">
			<title>Dynamic connector</title>
			<desc>Test theory</desc>
			<path d="M9 378.84 L61.88 378.84 L61.88 577.64 L23.04 577.64" class="st1"/>
			<rect x="15.2161" y="442.236" width="93.3302" height="72" class="st3"/>
			<text x="31.01" y="469.24" class="st4">Test <tspan x="15.22" dy="1.2em" class="st5">theory</tspan></text>		</g>
		<g id="shape3-10" transform="translate(153.109,-44.0486)">
			<title>Dynamic connector.10</title>
			<desc>Improve theory</desc>
			<path d="M9 378.84 L-47.35 378.84 L-47.35 180.04 L-5.04 180.04" class="st1"/>
			<rect x="-104.11" y="243.438" width="113.52" height="72" class="st3"/>
			<text x="-104.11" y="270.44" class="st4">Improve <tspan x="-94.02" dy="1.2em" class="st5">theory</tspan></text>		</g>
		<g id="shape4-18" transform="translate(162.109,-0.25)">
			<title>Round Corner Rectangle</title>
			<desc>Observation</desc>
			<path d="M31.67 378.84 L285.02 378.84 A31.6682 31.6682 -180 0 0 316.69 347.17 L316.69 322.91 A31.6682 31.6682 -180 0
						 0 285.02 291.24 L31.67 291.24 A31.6682 31.6682 -180 0 0 0 322.91 L0 347.17 A31.6682 31.6682 -180 0 0 31.67
						 378.84 Z" class="st6"/>
			<text x="22.5" y="349.44" class="st7">Observation</text>		</g>
		<g id="shape5-21" transform="translate(162.109,-199.048)">
			<title>Round Corner Rectangle.8</title>
			<desc>Theory</desc>
			<path d="M31.67 378.84 L285.02 378.84 A31.6682 31.6682 -180 0 0 316.69 347.17 L316.69 322.91 A31.6682 31.6682 -180 0
						 0 285.02 291.24 L31.67 291.24 A31.6682 31.6682 -180 0 0 0 322.91 L0 347.17 A31.6682 31.6682 -180 0 0 31.67
						 378.84 Z" class="st6"/>
			<text x="77.44" y="349.44" class="st7">Theory</text>		</g>
		<g id="shape6-24" transform="translate(0.25,-322.577)">
			<title>Sheet.6</title>
			<desc>Scientific Research</desc>
			<rect x="0" y="338.316" width="640.406" height="40.5204" class="st8"/>
			<text x="60.13" y="376.58" class="st9"><tspan class="st10">Scientific Research</tspan></text>		</g>
	</g>
</svg>
