<svg width="92" height="49" viewBox="0 0 92 49" fill="none" xmlns="http://www.w3.org/2000/svg">
    <rect width="92" height="49" rx="8" fill="#53DA70" fill-opacity="0.08"/>
    <path d="M24.1758 25.127C21.9245 24.4798 20.2839 23.6868 19.2539 22.748C18.2331 21.8001 17.7227 20.6335 17.7227 19.248C17.7227 17.6803 18.347 16.3861 19.5957 15.3652C20.8535 14.3353 22.485 13.8203 24.4902 13.8203C25.8574 13.8203 27.0742 14.0846 28.1406 14.6133C29.2161 15.1419 30.0456 15.8711 30.6289 16.8008C31.2214 17.7305 31.5176 18.7467 31.5176 19.8496H28.8789C28.8789 18.6465 28.4961 17.7031 27.7305 17.0195C26.9648 16.3268 25.8848 15.9805 24.4902 15.9805C23.196 15.9805 22.1842 16.2676 21.4551 16.8418C20.735 17.4069 20.375 18.1953 20.375 19.207C20.375 20.0182 20.7168 20.7064 21.4004 21.2715C22.0931 21.8275 23.2643 22.3379 24.9141 22.8027C26.5729 23.2676 27.8672 23.7826 28.7969 24.3477C29.7357 24.9036 30.4284 25.5553 30.875 26.3027C31.3307 27.0501 31.5586 27.9297 31.5586 28.9414C31.5586 30.5547 30.9297 31.849 29.6719 32.8242C28.4141 33.7904 26.7324 34.2734 24.627 34.2734C23.2598 34.2734 21.9837 34.0137 20.7988 33.4941C19.6139 32.9655 18.6979 32.2454 18.0508 31.334C17.4128 30.4225 17.0938 29.388 17.0938 28.2305H19.7324C19.7324 29.4336 20.1745 30.3861 21.0586 31.0879C21.9518 31.7806 23.1413 32.127 24.627 32.127C26.0124 32.127 27.0742 31.8444 27.8125 31.2793C28.5508 30.7142 28.9199 29.944 28.9199 28.9688C28.9199 27.9935 28.5781 27.2415 27.8945 26.7129C27.2109 26.1751 25.9714 25.6465 24.1758 25.127ZM43.6719 34C43.526 33.7083 43.4076 33.1888 43.3164 32.4414C42.1406 33.6628 40.737 34.2734 39.1055 34.2734C37.6471 34.2734 36.4486 33.8633 35.5098 33.043C34.5801 32.2135 34.1152 31.1654 34.1152 29.8984C34.1152 28.3581 34.6986 27.1641 35.8652 26.3164C37.041 25.4596 38.6908 25.0312 40.8145 25.0312H43.2754V23.8691C43.2754 22.985 43.0111 22.2832 42.4824 21.7637C41.9538 21.235 41.1745 20.9707 40.1445 20.9707C39.2422 20.9707 38.4857 21.1986 37.875 21.6543C37.2643 22.11 36.959 22.6615 36.959 23.3086H34.416C34.416 22.5703 34.6758 21.8594 35.1953 21.1758C35.724 20.4831 36.4349 19.9362 37.3281 19.5352C38.2305 19.1341 39.2194 18.9336 40.2949 18.9336C41.9993 18.9336 43.3346 19.362 44.3008 20.2188C45.2669 21.0664 45.7682 22.2376 45.8047 23.7324V30.541C45.8047 31.8991 45.9779 32.9792 46.3242 33.7812V34H43.6719ZM39.4746 32.0723C40.2676 32.0723 41.0195 31.8672 41.7305 31.457C42.4414 31.0469 42.9564 30.5137 43.2754 29.8574V26.8223H41.293C38.194 26.8223 36.6445 27.7292 36.6445 29.543C36.6445 30.3359 36.9089 30.9557 37.4375 31.4023C37.9661 31.849 38.6452 32.0723 39.4746 32.0723ZM54.4316 30.5684L58.0957 19.207H60.6797L55.375 34H53.4473L48.0879 19.207H50.6719L54.4316 30.5684ZM69.0605 34.2734C67.0553 34.2734 65.4238 33.6172 64.166 32.3047C62.9082 30.9831 62.2793 29.2194 62.2793 27.0137V26.5488C62.2793 25.0814 62.5573 23.7734 63.1133 22.625C63.6784 21.4674 64.4622 20.5651 65.4648 19.918C66.4766 19.2617 67.5703 18.9336 68.7461 18.9336C70.6693 18.9336 72.1641 19.5671 73.2305 20.834C74.2969 22.1009 74.8301 23.9147 74.8301 26.2754V27.3281H64.8086C64.8451 28.7865 65.2689 29.9668 66.0801 30.8691C66.9004 31.7624 67.9395 32.209 69.1973 32.209C70.0905 32.209 70.847 32.0267 71.4668 31.6621C72.0866 31.2975 72.6289 30.8145 73.0938 30.2129L74.6387 31.416C73.3991 33.321 71.5397 34.2734 69.0605 34.2734ZM68.7461 21.0117C67.7253 21.0117 66.8685 21.3854 66.1758 22.1328C65.4831 22.8711 65.0547 23.9102 64.8906 25.25H72.3008V25.0586C72.2279 23.7734 71.8815 22.7799 71.2617 22.0781C70.6419 21.3672 69.8034 21.0117 68.7461 21.0117Z"
          fill="#53DA70"/>
</svg>
