<svg width="24" height="24" viewBox="0 0 56 56" fill="none" xmlns="http://www.w3.org/2000/svg">
<!--    <rect width="56" height="56" rx="8" fill="white" fill-opacity="0.08"/>-->
    <svg viewBox="0 -4 32 40" fill="none" xmlns="http://www.w3.org/2000/svg">
        <path fill="white" fill-opacity=".25"
              d="M16 0C24.8366 0 32 7.16344 32 16C32 24.8366 24.8366 32 16 32C7.16344 32 0 24.8366 0 16C0 7.16344 7.16344 0 16 0ZM22.3152 9.6848C21.8466 9.21617 21.0868 9.21617 20.6181 9.6848L16 14.3027L11.3819 9.6848L11.259 9.5774C10.7886 9.21942 10.1144 9.25522 9.6848 9.6848L9.5774 9.80768C9.21942 10.278 9.25522 10.9523 9.6848 11.3819L14.3027 16L9.6848 20.6181C9.21617 21.0868 9.21617 21.8466 9.6848 22.3152C10.1534 22.7838 10.9132 22.7838 11.3819 22.3152L16 17.6973L20.6181 22.3152L20.741 22.4226C21.2114 22.7806 21.8856 22.7448 22.3152 22.3152L22.4226 22.1923C22.7806 21.722 22.7448 21.0477 22.3152 20.6181L17.6973 16L22.3152 11.3819C22.7838 10.9132 22.7838 10.1534 22.3152 9.6848Z"/>
    </svg>
</svg>
