<svg width="41" height="25" viewBox="0 0 81 49" fill="none" xmlns="http://www.w3.org/2000/svg">
    <path d="M21.127 34H18.502V14.0938H21.127V34ZM27.9355 19.207L28.0176 21.0664C29.1478 19.6445 30.6243 18.9336 32.4473 18.9336C35.5736 18.9336 37.1504 20.6973 37.1777 24.2246V34H34.6484V24.2109C34.6393 23.1445 34.3932 22.3561 33.9102 21.8457C33.4362 21.3353 32.6934 21.0801 31.6816 21.0801C30.8613 21.0801 30.1413 21.2988 29.5215 21.7363C28.9017 22.1738 28.4186 22.748 28.0723 23.459V34H25.543V19.207H27.9355ZM42.2363 34V21.1621H39.8984V19.207H42.2363V17.6895C42.2363 16.1035 42.6602 14.8776 43.5078 14.0117C44.3555 13.1458 45.554 12.7129 47.1035 12.7129C47.6868 12.7129 48.2656 12.7904 48.8398 12.9453L48.7031 14.9961C48.2747 14.9141 47.819 14.873 47.3359 14.873C46.5156 14.873 45.8822 15.1146 45.4355 15.5977C44.9889 16.0716 44.7656 16.7552 44.7656 17.6484V19.207H47.9238V21.1621H44.7656V34H42.2363ZM50.0566 26.4668C50.0566 25.0176 50.3392 23.7142 50.9043 22.5566C51.4785 21.3991 52.2715 20.5059 53.2832 19.877C54.304 19.248 55.4661 18.9336 56.7695 18.9336C58.7839 18.9336 60.4108 19.6309 61.6504 21.0254C62.8991 22.4199 63.5234 24.2747 63.5234 26.5898V26.7676C63.5234 28.2077 63.2454 29.502 62.6895 30.6504C62.1426 31.7897 61.3542 32.6784 60.3242 33.3164C59.3034 33.9544 58.1276 34.2734 56.7969 34.2734C54.7917 34.2734 53.1647 33.5762 51.916 32.1816C50.6764 30.7871 50.0566 28.9414 50.0566 26.6445V26.4668ZM52.5996 26.7676C52.5996 28.4082 52.9779 29.7253 53.7344 30.7188C54.5 31.7122 55.5208 32.209 56.7969 32.209C58.082 32.209 59.1029 31.7077 59.8594 30.7051C60.6159 29.6934 60.9941 28.2806 60.9941 26.4668C60.9941 24.8444 60.6068 23.5319 59.832 22.5293C59.0664 21.5176 58.0456 21.0117 56.7695 21.0117C55.5208 21.0117 54.5137 21.5085 53.748 22.502C52.9824 23.4954 52.5996 24.9173 52.5996 26.7676Z"
          fill="#E0483A"/>
    <rect x="1" y="1" width="79" height="47" rx="15" stroke="#E0483A" stroke-width="2"/>
</svg>
