<svg width="24px" height="24px" id="Layer_1" data-name="Layer 1" xmlns="http://www.w3.org/2000/svg"
     viewBox="0 0 36.07 18.28">
    <svg id="Layer_1" data-name="Layer 1" xmlns="http://www.w3.org/2000/svg" viewBox="0 0 36.07 18.28">
        <defs>
            <style>.cls-1{fill:#fff;}.cls-2{fill:#e1483b;}</style>
        </defs>
        <title>pluginIcon</title>
        <path class="cls-1" d="M12,7.32l0,4.43L7.59,14.2l5.29,4.29L5.44,24l3.08-5L2,14.07,2,14Z"
              transform="translate(-1.97 -6.5)"/>
    </svg>
    <svg xmlns="http://www.w3.org/2000/svg" viewBox="0 0 512 512">
        <g transform="translate(128)">
            <path class="cls-2"
                  d="M464,160H208a48,48,0,0,0-48,48V464a48,48,0,0,0,48,48H464a48,48,0,0,0,48-48h0V208A48,48,0,0,0,464,160ZM448,448H224V224H448ZM352,128V48A48,48,0,0,0,304,0H48A48,48,0,0,0,0,48V304a48,48,0,0,0,48,48h80V208a80.09,80.09,0,0,1,80-80Z"/>
        </g>
    </svg>
</svg>