<svg width="24px" height="24px" id="Layer_1" data-name="Layer 1" xmlns="http://www.w3.org/2000/svg"
     viewBox="0 0 36.07 18.28">
    <svg id="Layer_1" data-name="Layer 1" xmlns="http://www.w3.org/2000/svg" viewBox="0 0 36.07 18.28">
        <defs>
            <style>.cls-1{fill:#182d34;}.cls-2{fill:#e1483b;}</style>
        </defs>
        <title>pluginIcon</title>
        <path class="cls-1" d="M12,7.32l0,4.43L7.59,14.2l5.29,4.29L5.44,24l3.08-5L2,14.07,2,14Z"
              transform="translate(-1.97 -6.5)"/>
    </svg>
    <svg xmlns="http://www.w3.org/2000/svg" viewBox="0 0 512 512">
        <g transform="translate(128)">
            <path class="cls-2"
                  d="M416 448h-84c-6.6 0-12-5.4-12-12v-24c0-6.6 5.4-12 12-12h84c26.5 0 48-21.5 48-48V160c0-26.5-21.5-48-48-48h-84c-6.6 0-12-5.4-12-12V76c0-6.6 5.4-12 12-12h84c53 0 96 43 96 96v192c0 53-43 96-96 96zM167.1 83.5l-19.6 19.6c-4.8 4.8-4.7 12.5.2 17.1L260.8 230H12c-6.6 0-12 5.4-12 12v28c0 6.6 5.4 12 12 12h248.8L147.7 391.7c-4.8 4.7-4.9 12.4-.2 17.1l19.6 19.6c4.7 4.7 12.3 4.7 17 0l164.4-164c4.7-4.7 4.7-12.3 0-17l-164.4-164c-4.7-4.6-12.3-4.6-17 .1z"/>
        </g>
    </svg>
</svg>