<svg width="24px" height="24px" id="Layer_1" data-name="Layer 1" xmlns="http://www.w3.org/2000/svg"
     viewBox="0 0 36.07 18.28">
    <svg id="Layer_1" data-name="Layer 1" xmlns="http://www.w3.org/2000/svg" viewBox="0 0 36.07 18.28">
        <defs>
            <style>.cls-1{fill:#182d34;}.cls-2{fill:#e1483b;}</style>
        </defs>
        <title>pluginIcon</title>
        <path class="cls-1" d="M12,7.32l0,4.43L7.59,14.2l5.29,4.29L5.44,24l3.08-5L2,14.07,2,14Z"
              transform="translate(-1.97 -6.5)"/>
    </svg>
    <svg xmlns="http://www.w3.org/2000/svg" viewBox="0 0 512 512">
        <g transform="translate(128)">
            <path class="cls-2"
                  d="M569.517 440.013C587.975 472.007 564.806 512 527.94 512H48.054c-36.937 0-59.999-40.055-41.577-71.987L246.423 23.985c18.467-32.009 64.72-31.951 83.154 0l239.94 416.028zM288 354c-25.405 0-46 20.595-46 46s20.595 46 46 46 46-20.595 46-46-20.595-46-46-46zm-43.673-165.346l7.418 136c.347 6.364 5.609 11.346 11.982 11.346h48.546c6.373 0 11.635-4.982 11.982-11.346l7.418-136c.375-6.874-5.098-12.654-11.982-12.654h-63.383c-6.884 0-12.356 5.78-11.981 12.654z"/>
        </g>
    </svg>
</svg>