<svg xmlns="http://www.w3.org/2000/svg" viewBox="0 0 56.86 6.05">
    <title>Asset 2</title>
    <path d="M2,2.24a2.8,2.8,0,0,0,.53.27,5.41,5.41,0,0,1,.73.38,1.54,1.54,0,0,1,.5.54A1.75,1.75,0,0,1,4,4.34a3.34,3.34,0,0,1,0,.43,1.2,1.2,0,0,1-.67,1A3,3,0,0,1,1.86,6,5,5,0,0,1,.25,5.75.23.23,0,0,1,.07,5.5V4.6c0-.13.06-.2.17-.2l.09,0a4.56,4.56,0,0,0,1.13.15,1.73,1.73,0,0,0,.61-.08.29.29,0,0,0,.22-.28A.31.31,0,0,0,2.12,4,4.34,4.34,0,0,0,1.6,3.7a5.29,5.29,0,0,1-.79-.39,1.57,1.57,0,0,1-.55-.54A1.5,1.5,0,0,1,0,1.89a2.45,2.45,0,0,1,0-.48A1.19,1.19,0,0,1,.74.51,2.93,2.93,0,0,1,2.09.23,5.25,5.25,0,0,1,3.7.48a.24.24,0,0,1,.17.26v.65c0,.11-.09.16-.26.16a1.05,1.05,0,0,1-.24,0,3.68,3.68,0,0,0-.66-.06,1.43,1.43,0,0,0-.64.12.38.38,0,0,0-.24.36A.35.35,0,0,0,2,2.24Z"
          style="fill:#182d34;stroke:#f2f2f2;stroke-miterlimit:10;stroke-width:0.05000000074505806px"/>
    <path d="M5,2.7a2.25,2.25,0,0,1,1-.78l.1,0A.11.11,0,0,1,6.23,2a.17.17,0,0,1,0,.15V3.88a1.24,1.24,0,0,0,.2.71.53.53,0,0,0,.95,0,1.26,1.26,0,0,0,.2-.71,1.33,1.33,0,0,0-.17-.67A.64.64,0,0,0,7,2.87a.3.3,0,0,1-.17-.06.14.14,0,0,1-.06-.13V2c0-.15.08-.22.23-.22a2.48,2.48,0,0,1,1.14.3A2.28,2.28,0,0,1,9,2.82a1.91,1.91,0,0,1,.31,1.07A1.92,1.92,0,0,1,9,5a2.29,2.29,0,0,1-.86.77A2.48,2.48,0,0,1,7,6a2.49,2.49,0,0,1-1.19-.28A2.29,2.29,0,0,1,4.91,5a1.85,1.85,0,0,1-.32-1.08A2,2,0,0,1,5,2.7Z"
          style="fill:#182d34;stroke:#f2f2f2;stroke-miterlimit:10;stroke-width:0.05000000074505806px"/>
    <path d="M12.71,2.1a.21.21,0,0,1,.23-.23h1.22a.21.21,0,0,1,.23.23V5.68a.21.21,0,0,1-.23.23H13a.23.23,0,0,1-.24-.19l0-.19a1.69,1.69,0,0,1-.55.36,1.57,1.57,0,0,1-.62.13,1.59,1.59,0,0,1-1.16-.43A1.87,1.87,0,0,1,9.94,4.2V2.1a.21.21,0,0,1,.23-.23h1.12a.21.21,0,0,1,.23.23V4a1,1,0,0,0,.15.58.45.45,0,0,0,.38.19.75.75,0,0,0,.34-.09,1.08,1.08,0,0,0,.32-.24Z"
          style="fill:#182d34;stroke:#f2f2f2;stroke-miterlimit:10;stroke-width:0.05000000074505806px"/>
    <path d="M17.44,1.89a1.18,1.18,0,0,1,.7-.14.22.22,0,0,1,.2.24V3a.21.21,0,0,1-.23.23,1.57,1.57,0,0,0-.93.23,1.1,1.1,0,0,0-.35.94V5.68a.21.21,0,0,1-.23.23H15.38a.21.21,0,0,1-.23-.23V2.1a.21.21,0,0,1,.23-.23h1.16a.21.21,0,0,1,.23.21l.06.33A2,2,0,0,1,17.44,1.89Z"
          style="fill:#182d34;stroke:#f2f2f2;stroke-miterlimit:10;stroke-width:0.05000000074505806px"/>
    <path d="M19.16,2.65a2,2,0,0,1,1-.77h.08a.19.19,0,0,1,.13,0,.27.27,0,0,1,0,.16V3.94a.86.86,0,0,0,.21.62.66.66,0,0,0,.5.22.63.63,0,0,0,.52-.25c.08-.09.14-.14.2-.14l.1,0,.76.3a.18.18,0,0,1,.15.18.26.26,0,0,1,0,.11,1.9,1.9,0,0,1-.71.73A2,2,0,0,1,21.05,6a2.41,2.41,0,0,1-1.17-.28,2,2,0,0,1-.8-.77,2.11,2.11,0,0,1-.29-1.09A2.1,2.1,0,0,1,19.16,2.65ZM21,2.89a.18.18,0,0,1-.06-.15V2a.19.19,0,0,1,.24-.21,2.23,2.23,0,0,1,1,.28,1.63,1.63,0,0,1,.62.63.16.16,0,0,1,0,.09.19.19,0,0,1-.15.19l-.75.29-.09,0a.33.33,0,0,1-.22-.14.56.56,0,0,0-.47-.2A.34.34,0,0,1,21,2.89Z"
          style="fill:#182d34;stroke:#f2f2f2;stroke-miterlimit:10;stroke-width:0.05000000074505806px"/>
    <path d="M23.53,2.81A1.89,1.89,0,0,1,24.31,2a2.5,2.5,0,0,1,1.24-.29A2,2,0,0,1,27,2.26a2,2,0,0,1,.53,1.5,2.91,2.91,0,0,1,0,.4.22.22,0,0,1-.23.22h-2a.24.24,0,0,1-.25-.18,1.37,1.37,0,0,1,0-.29,1.37,1.37,0,0,1,0-.29.23.23,0,0,1,.25-.19h.81A.53.53,0,0,0,25.9,3a.78.78,0,0,0-.5-.17.73.73,0,0,0-.63.32,1.22,1.22,0,0,0-.23.73,1.15,1.15,0,0,0,.12.53,1,1,0,0,0,.53.42,2.45,2.45,0,0,0,.89.14,3.44,3.44,0,0,0,.78-.08h.08a.2.2,0,0,1,.2.17l.17.51a.84.84,0,0,1,0,.1.18.18,0,0,1-.14.18A5.35,5.35,0,0,1,25.74,6,2.93,2.93,0,0,1,24,5.51a1.88,1.88,0,0,1-.7-1.59A2.23,2.23,0,0,1,23.53,2.81Z"
          style="fill:#182d34;stroke:#f2f2f2;stroke-miterlimit:10;stroke-width:0.05000000074505806px"/>
    <path d="M28.38,5.84a.25.25,0,0,1,0-.18L29,.79a.25.25,0,0,1,.22-.23l1.3-.21a.21.21,0,0,1,.27.17l.91,3.14.44-1.54c0-.1.07-.16.14-.16s.12.06.13.18l.36,2.35a.31.31,0,0,1,0,.1,1.1,1.1,0,0,1,0,.18l-.3,1a.25.25,0,0,1-.25.19h-1A.24.24,0,0,1,31,5.72l-.7-2.26-.2,2.23a.26.26,0,0,1-.07.16.25.25,0,0,1-.17.06H28.55A.21.21,0,0,1,28.38,5.84ZM32.75.38a.21.21,0,0,1,.17-.06h1.2a.21.21,0,0,1,.23.2l.7,5.14a.25.25,0,0,1,0,.18.21.21,0,0,1-.17.07H33.59a.23.23,0,0,1-.16-.06.26.26,0,0,1-.07-.16l-.2-2.19L32.71.56A.21.21,0,0,1,32.75.38Z"
          style="fill:#182d34;stroke:#f2f2f2;stroke-miterlimit:10;stroke-width:0.05000000074505806px"/>
    <path d="M35.67,4.83A1.17,1.17,0,0,1,36,4a2.12,2.12,0,0,1,.88-.56,3.61,3.61,0,0,1,1.21-.2h.21a.76.76,0,0,0-.73-.32A1.89,1.89,0,0,0,37,3a2.44,2.44,0,0,0-.53.21.2.2,0,0,1-.13,0,.19.19,0,0,1-.18-.12l-.3-.53a.27.27,0,0,1,0-.12.22.22,0,0,1,.1-.19,3.63,3.63,0,0,1,.89-.42,3.4,3.4,0,0,1,.94-.14,2.46,2.46,0,0,1,1,.19,1.67,1.67,0,0,1,.73.57,1.62,1.62,0,0,1,.26.91c0,.12,0,.74,0,1.87v.39a.22.22,0,0,1-.23.23h-.89a.21.21,0,0,1-.23-.23V4.06h-.21a1.17,1.17,0,0,0-.65.16.46.46,0,0,0-.22.35.24.24,0,0,0,.05.14.27.27,0,0,0,.12.09l.15,0a.25.25,0,0,1,.17,0,.18.18,0,0,1,.06.15v.64a.24.24,0,0,1-.22.26A2.35,2.35,0,0,1,37,6a1.54,1.54,0,0,1-.82-.2.92.92,0,0,1-.45-.6A1.31,1.31,0,0,1,35.67,4.83Z"
          style="fill:#182d34;stroke:#f2f2f2;stroke-miterlimit:10;stroke-width:0.05000000074505806px"/>
    <path d="M42.81,1.89a1.15,1.15,0,0,1,.69-.14.22.22,0,0,1,.2.24V3a.21.21,0,0,1-.23.23,1.52,1.52,0,0,0-.92.23,1.07,1.07,0,0,0-.36.94V5.68a.21.21,0,0,1-.23.23H40.74c-.15,0-.22-.08-.22-.23V2.1c0-.15.07-.23.22-.23H41.9a.21.21,0,0,1,.23.21l.06.33A1.92,1.92,0,0,1,42.81,1.89Z"
          style="fill:#182d34;stroke:#f2f2f2;stroke-miterlimit:10;stroke-width:0.05000000074505806px"/>
    <path d="M44.33,5.68V.46a.23.23,0,0,1,.21-.24L45.63,0a.19.19,0,0,1,.17,0,.21.21,0,0,1,.08.17L46,3l.85-1a.34.34,0,0,1,.28-.13h1.1c.13,0,.19.05.19.14a.22.22,0,0,1-.06.14L46.21,4.6,46,4.9v.78c0,.15-.07.23-.22.23H44.56A.21.21,0,0,1,44.33,5.68Zm2.27-.62a.25.25,0,0,1,.06-.16l.5-.59a.2.2,0,0,1,.15-.09.18.18,0,0,1,.16.11l.88,1.3a.18.18,0,0,1,0,.13c0,.09-.06.14-.19.14h-.88a.32.32,0,0,1-.27-.15l-.4-.55A.3.3,0,0,1,46.6,5.06Z"
          style="fill:#182d34;stroke:#f2f2f2;stroke-miterlimit:10;stroke-width:0.05000000074505806px"/>
    <path d="M49,2.81A1.89,1.89,0,0,1,49.78,2,2.5,2.5,0,0,1,51,1.74a2,2,0,0,1,1.47.52A2,2,0,0,1,53,3.76a2.91,2.91,0,0,1,0,.4.22.22,0,0,1-.23.22h-2a.24.24,0,0,1-.26-.18,1.37,1.37,0,0,1,0-.29,1.37,1.37,0,0,1,0-.29.23.23,0,0,1,.26-.19h.8A.53.53,0,0,0,51.37,3a.77.77,0,0,0-.49-.17.74.74,0,0,0-.64.32,1.22,1.22,0,0,0-.23.73,1.15,1.15,0,0,0,.12.53,1,1,0,0,0,.53.42,2.45,2.45,0,0,0,.89.14,3.39,3.39,0,0,0,.78-.08h.08a.2.2,0,0,1,.2.17l.17.51a.24.24,0,0,1,0,.1.18.18,0,0,1-.14.18A5.35,5.35,0,0,1,51.21,6a3,3,0,0,1-1.78-.51,1.88,1.88,0,0,1-.7-1.59A2.23,2.23,0,0,1,49,2.81Z"
          style="fill:#182d34;stroke:#f2f2f2;stroke-miterlimit:10;stroke-width:0.05000000074505806px"/>
    <path d="M55.94,1.89a1.15,1.15,0,0,1,.69-.14.21.21,0,0,1,.2.24V3a.21.21,0,0,1-.23.23,1.52,1.52,0,0,0-.92.23,1.07,1.07,0,0,0-.36.94V5.68a.2.2,0,0,1-.23.23H53.87c-.15,0-.22-.08-.22-.23V2.1c0-.15.07-.23.22-.23H55a.22.22,0,0,1,.24.21l0,.33A2,2,0,0,1,55.94,1.89Z"
          style="fill:#182d34;stroke:#f2f2f2;stroke-miterlimit:10;stroke-width:0.05000000074505806px"/>
</svg>