<?xml version="1.0" encoding="utf-8"?>
<!-- Generator: Adobe Illustrator 25.0.0, SVG Export Plug-In . SVG Version: 6.00 Build 0)  -->
<svg version="1.1" id="Layer_1" xmlns="http://www.w3.org/2000/svg" xmlns:xlink="http://www.w3.org/1999/xlink" x="0px" y="0px"
	 viewBox="0 0 58.6 6.8" style="enable-background:new 0 0 58.6 6.8;" xml:space="preserve">
<style type="text/css">
	.st0{fill:#182D34;stroke:#E2AF33;stroke-width:0.1;stroke-miterlimit:10;}
</style>
<path class="st0" d="M3,2.6c0.2,0.1,0.3,0.2,0.5,0.3C3.8,3,4,3.1,4.3,3.3c0.2,0.1,0.4,0.3,0.5,0.5C4.9,4.1,5,4.4,5,4.7
	C5,4.9,5,5,5,5.2c0,0.4-0.3,0.8-0.7,1c-0.5,0.2-1,0.3-1.5,0.2c-0.5,0-1.1-0.1-1.6-0.2C1.1,6.1,1.1,6,1.1,5.9V5
	c0-0.1,0.1-0.2,0.2-0.2h0.1c0.4,0.1,0.7,0.1,1.1,0.2c0.2,0,0.4,0,0.6-0.1c0.1,0,0.2-0.1,0.2-0.3c0-0.1-0.1-0.2-0.2-0.2
	C2.9,4.3,2.8,4.2,2.6,4.1C2.3,4,2.1,3.9,1.8,3.7C1.6,3.6,1.4,3.4,1.3,3.2C1.1,2.9,1,2.6,1,2.3C1,2.1,1,2,1,1.8
	c0.1-0.4,0.4-0.7,0.7-0.9c0.4-0.2,0.9-0.3,1.4-0.3c0.5,0,1.1,0.1,1.6,0.2c0.1,0,0.2,0.1,0.2,0.3v0.6c0,0.1-0.1,0.2-0.3,0.2
	c-0.1,0-0.2,0-0.2,0c-0.2,0-0.4-0.1-0.7-0.1c-0.2,0-0.4,0-0.6,0.1C2.9,2.1,2.8,2.2,2.8,2.4C2.8,2.5,2.9,2.6,3,2.6z"/>
<path class="st0" d="M6,3.1c0.3-0.4,0.6-0.6,1-0.8h0.1c0.1,0,0.1,0,0.1,0.1c0,0,0,0.1,0,0.2v1.7c0,0.3,0.1,0.5,0.2,0.7
	c0.1,0.3,0.4,0.4,0.7,0.2C8.2,5.2,8.3,5.1,8.4,5c0.1-0.2,0.2-0.5,0.2-0.7c0-0.2-0.1-0.5-0.2-0.7C8.3,3.4,8.2,3.3,8,3.3
	c-0.1,0-0.1,0-0.2-0.1c0,0-0.1-0.1-0.1-0.1V2.4c0-0.2,0.1-0.2,0.2-0.2c0.4,0,0.8,0.1,1.1,0.3C9.5,2.6,9.8,2.9,10,3.2
	c0.2,0.3,0.3,0.7,0.3,1.1c0,0.4-0.1,0.8-0.3,1.1C9.8,5.7,9.5,6,9.1,6.2C8.8,6.3,8.4,6.4,8,6.4c-0.4,0-0.8-0.1-1.2-0.3
	C6.4,6,6.1,5.7,5.9,5.4C5.7,5.1,5.6,4.7,5.6,4.3C5.6,3.9,5.7,3.4,6,3.1z"/>
<path class="st0" d="M13.7,2.5c0-0.1,0.1-0.2,0.2-0.2c0,0,0,0,0,0h1.2c0.1,0,0.2,0.1,0.2,0.2c0,0,0,0,0,0v3.6c0,0.1-0.1,0.2-0.2,0.2
	c0,0,0,0,0,0H14c-0.1,0-0.2-0.1-0.2-0.2V5.9c-0.2,0.2-0.3,0.3-0.6,0.4c-0.2,0.1-0.4,0.1-0.6,0.1c-0.4,0-0.8-0.1-1.2-0.4
	c-0.3-0.4-0.5-0.9-0.5-1.4V2.5c0-0.1,0.1-0.2,0.2-0.2c0,0,0,0,0,0h1.1c0.1,0,0.2,0.1,0.2,0.2c0,0,0,0,0,0v1.9c0,0.2,0,0.4,0.1,0.6
	c0.1,0.1,0.2,0.2,0.4,0.2c0.1,0,0.2,0,0.3-0.1c0.1-0.1,0.2-0.1,0.3-0.2L13.7,2.5z"/>
<path class="st0" d="M18.4,2.3c0.2-0.1,0.5-0.2,0.7-0.1c0.1,0,0.2,0.1,0.2,0.2c0,0,0,0,0,0v1c0,0.1-0.1,0.2-0.2,0.2c0,0,0,0,0,0
	c-0.3,0-0.7,0.1-0.9,0.2c-0.3,0.2-0.4,0.6-0.4,0.9v1.3c0,0.1-0.1,0.2-0.2,0.2c0,0,0,0,0,0h-1.2c-0.1,0-0.2-0.1-0.2-0.2c0,0,0,0,0,0
	V2.5c0-0.1,0.1-0.2,0.2-0.2c0,0,0,0,0,0h1.2c0.1,0,0.2,0.1,0.2,0.2c0,0,0,0,0,0l0.1,0.3C18,2.6,18.2,2.4,18.4,2.3z"/>
<path class="st0" d="M20.2,3c0.2-0.4,0.6-0.6,1-0.8h0.1c0,0,0.1,0,0.1,0c0,0.1,0,0.1,0,0.2v1.9c0,0.2,0.1,0.4,0.2,0.6
	c0.1,0.1,0.3,0.2,0.5,0.2c0.2,0,0.4-0.1,0.5-0.2c0.1-0.1,0.1-0.1,0.2-0.1h0.1l0.8,0.3c0.1,0,0.2,0.1,0.1,0.2c0,0,0,0.1,0,0.1
	c-0.2,0.3-0.4,0.6-0.7,0.7c-0.3,0.2-0.7,0.3-1.1,0.3c-0.4,0-0.8-0.1-1.2-0.3c-0.3-0.2-0.6-0.4-0.8-0.8c-0.2-0.3-0.3-0.7-0.3-1.1
	C19.8,3.8,19.9,3.4,20.2,3z M22,3.3c0,0-0.1-0.1-0.1-0.2V2.4c0-0.1,0.1-0.2,0.2-0.2c0,0,0.1,0,0.1,0c0.4,0,0.7,0.1,1,0.3
	c0.3,0.1,0.5,0.4,0.6,0.6c0,0,0,0.1,0,0.1c0,0.1-0.1,0.2-0.1,0.2l-0.8,0.3h-0.1c-0.1,0-0.2-0.1-0.2-0.1c-0.1-0.1-0.3-0.2-0.5-0.2
	C22.1,3.3,22,3.3,22,3.3z"/>
<path class="st0" d="M24.5,3.2c0.2-0.3,0.4-0.6,0.8-0.8c0.4-0.2,0.8-0.3,1.2-0.3c0.5,0,1.1,0.2,1.5,0.5c0.4,0.4,0.6,0.9,0.5,1.5
	c0,0.1,0,0.3,0,0.4c0,0.1-0.1,0.2-0.2,0.2c0,0,0,0,0,0h-2c-0.1,0-0.2-0.1-0.2-0.2c0-0.1,0-0.2,0-0.3c0-0.1,0-0.2,0-0.3
	c0-0.1,0.1-0.2,0.2-0.2h0.8c0-0.2-0.1-0.3-0.2-0.4c-0.1-0.1-0.3-0.2-0.5-0.2c-0.3,0-0.5,0.1-0.6,0.3c-0.2,0.2-0.2,0.5-0.2,0.7
	c0,0.2,0,0.4,0.1,0.5C25.8,5,26,5.1,26.2,5.2c0.3,0.1,0.6,0.1,0.9,0.1c0.3,0,0.5,0,0.8-0.1h0.1c0.1,0,0.2,0.1,0.2,0.2L28.3,6
	c0,0,0,0.1,0,0.1c0,0.1-0.1,0.2-0.1,0.2c-0.5,0.1-0.9,0.2-1.4,0.2c-0.6,0-1.2-0.1-1.7-0.5c-0.5-0.4-0.7-1-0.7-1.6
	C24.3,3.9,24.4,3.5,24.5,3.2z"/>
<path class="st0" d="M29.4,6.2c0-0.1,0-0.1,0-0.2L30,1.2C30,1.1,30.1,1,30.2,1l1.3-0.2c0.1,0,0.2,0,0.3,0.1c0,0,0,0,0,0l0.9,3.1
	l0.4-1.5c0-0.1,0.1-0.2,0.1-0.2s0.1,0.1,0.1,0.2l0.4,2.3c0,0,0,0.1,0,0.1c0,0.1,0,0.1,0,0.2l-0.3,1c0,0.1-0.1,0.2-0.2,0.2h-1
	c-0.1,0-0.2-0.1-0.2-0.2l-0.7-2.3l-0.2,2.2c0,0.1,0,0.1-0.1,0.2c0,0-0.1,0.1-0.2,0.1h-1.3C29.5,6.3,29.4,6.3,29.4,6.2z M33.7,0.8
	c0,0,0.1-0.1,0.2-0.1h1.2c0.1,0,0.2,0.1,0.2,0.2c0,0,0,0,0,0L36,6.1c0,0.1,0,0.1,0,0.2c0,0-0.1,0.1-0.2,0.1h-1.3
	c-0.1,0-0.1,0-0.2-0.1c0,0-0.1-0.1-0.1-0.2l-0.2-2.2L33.7,1C33.7,0.9,33.7,0.8,33.7,0.8z"/>
<path class="st0" d="M36.7,5.2c0-0.3,0.1-0.6,0.3-0.8c0.2-0.3,0.5-0.4,0.9-0.6c0.4-0.1,0.8-0.2,1.2-0.2h0.2
	c-0.2-0.2-0.4-0.4-0.7-0.3c-0.2,0-0.4,0-0.6,0.1c-0.2,0-0.4,0.1-0.5,0.2c0,0-0.1,0-0.1,0c-0.1,0-0.2,0-0.2-0.1L36.9,3
	c0,0,0-0.1,0-0.1c0-0.1,0-0.1,0.1-0.2c0.3-0.2,0.6-0.3,0.9-0.4c0.3-0.1,0.6-0.1,0.9-0.1c0.3,0,0.7,0.1,1,0.2
	c0.3,0.1,0.5,0.3,0.7,0.6c0.2,0.3,0.3,0.6,0.3,0.9c0,0.1,0,0.7,0,1.9V6c0,0.1-0.1,0.2-0.2,0.2c0,0,0,0,0,0h-0.9
	c-0.1,0-0.2-0.1-0.2-0.2c0,0,0,0,0,0V4.5h-0.2c-0.2,0-0.5,0-0.7,0.2c-0.1,0.1-0.2,0.2-0.2,0.3c0,0.1,0,0.1,0,0.1
	c0,0,0.1,0.1,0.1,0.1h0.2c0.1,0,0.1,0,0.2,0c0,0,0.1,0.1,0.1,0.2V6c0,0.1-0.1,0.2-0.2,0.3c0,0,0,0,0,0c-0.2,0.1-0.4,0.1-0.7,0.2
	c-0.3,0-0.6-0.1-0.8-0.2c-0.2-0.1-0.4-0.3-0.5-0.6C36.7,5.5,36.7,5.3,36.7,5.2z"/>
<path class="st0" d="M43.8,2.3c0.2-0.1,0.5-0.2,0.7-0.1c0.1,0,0.2,0.1,0.2,0.2c0,0,0,0,0,0v1c0,0.1-0.1,0.2-0.2,0.2c0,0,0,0,0,0
	c-0.3,0-0.6,0.1-0.9,0.2c-0.3,0.2-0.4,0.6-0.4,0.9v1.3c0,0.1-0.1,0.2-0.2,0.2c0,0,0,0,0,0h-1.2c-0.2,0-0.2-0.1-0.2-0.2V2.5
	c0-0.2,0.1-0.2,0.2-0.2h1.2c0.1,0,0.2,0.1,0.2,0.2c0,0,0,0,0,0l0.1,0.3C43.4,2.6,43.6,2.4,43.8,2.3z"/>
<path class="st0" d="M45.3,6.1V0.9c0-0.1,0.1-0.2,0.2-0.2l1.1-0.2c0.1,0,0.1,0,0.2,0c0.1,0,0.1,0.1,0.1,0.2L47,3.4l0.8-1
	c0.1-0.1,0.2-0.1,0.3-0.1h1.1c0.1,0,0.2,0,0.2,0.1c0,0.1,0,0.1-0.1,0.1L47.2,5L47,5.3v0.8c0,0.2-0.1,0.2-0.2,0.2h-1.2
	C45.4,6.3,45.3,6.2,45.3,6.1C45.3,6.1,45.3,6.1,45.3,6.1z M47.6,5.5c0-0.1,0-0.1,0.1-0.2l0.5-0.6c0-0.1,0.1-0.1,0.2-0.1
	c0.1,0,0.1,0,0.2,0.1L49.3,6c0,0,0,0.1,0,0.1c0,0.1-0.1,0.1-0.2,0.1h-0.9c-0.1,0-0.2-0.1-0.3-0.2l-0.4-0.6
	C47.6,5.5,47.6,5.5,47.6,5.5z"/>
<path class="st0" d="M50,3.2c0.2-0.3,0.4-0.6,0.8-0.8c0.4-0.2,0.8-0.3,1.2-0.3c0.5,0,1.1,0.2,1.5,0.5C53.8,3.1,54,3.6,54,4.2
	c0,0.1,0,0.3,0,0.4c0,0.1-0.1,0.2-0.2,0.2c0,0,0,0,0,0h-2c-0.1,0-0.2-0.1-0.3-0.2c0-0.1,0-0.2,0-0.3c0-0.1,0-0.2,0-0.3
	c0-0.1,0.1-0.2,0.3-0.2h0.8c0-0.2-0.1-0.3-0.2-0.4c-0.1-0.1-0.3-0.2-0.5-0.2c-0.3,0-0.5,0.1-0.6,0.3C51.1,3.8,51,4,51,4.3
	c0,0.2,0,0.4,0.1,0.5c0.1,0.2,0.3,0.3,0.5,0.4c0.3,0.1,0.6,0.1,0.9,0.1c0.3,0,0.5,0,0.8-0.1h0.1c0.1,0,0.2,0.1,0.2,0.2L53.8,6
	c0,0,0,0.1,0,0.1c0,0.1-0.1,0.2-0.1,0.2c-0.5,0.1-0.9,0.2-1.4,0.2c-0.6,0-1.3-0.2-1.8-0.5c-0.5-0.4-0.7-1-0.7-1.6
	C49.7,3.9,49.8,3.5,50,3.2z"/>
<path class="st0" d="M56.9,2.3c0.2-0.1,0.5-0.2,0.7-0.1c0.1,0,0.2,0.1,0.2,0.2c0,0,0,0,0,0v1c0,0.1-0.1,0.2-0.2,0.2c0,0,0,0,0,0
	c-0.3,0-0.6,0.1-0.9,0.2c-0.3,0.2-0.4,0.6-0.4,0.9v1.3c0,0.1-0.1,0.2-0.2,0.2c0,0,0,0-0.1,0h-1.2c-0.2,0-0.2-0.1-0.2-0.2V2.5
	c0-0.2,0.1-0.2,0.2-0.2H56c0.1,0,0.2,0.1,0.2,0.2c0,0,0,0,0,0v0.3C56.4,2.6,56.7,2.4,56.9,2.3z"/>
</svg>
