<svg xmlns="http://www.w3.org/2000/svg" viewBox="0 0 455.21 48.74"><defs><style>.cls-1{fill:#182d34;stroke:#e2af33;stroke-miterlimit:10;stroke-width:0.75px;}</style></defs><g id="Layer_2" data-name="Layer 2"><g id="Layer_1-2" data-name="Layer 1"><path class="cls-1" d="M16.11,18.12a23.18,23.18,0,0,0,4.21,2.16,41.5,41.5,0,0,1,5.83,3,12.81,12.81,0,0,1,4,4.32,14.22,14.22,0,0,1,1.69,7.31,29.08,29.08,0,0,1-.22,3.46,9.5,9.5,0,0,1-5.36,7.55,24.28,24.28,0,0,1-11.2,2.38,40.79,40.79,0,0,1-6.77-.57A39.66,39.66,0,0,1,2.17,46.2a1.9,1.9,0,0,1-1.44-2V37c0-1.06.46-1.59,1.37-1.59a4,4,0,0,1,.72.15,35.81,35.81,0,0,0,9,1.22,14.33,14.33,0,0,0,4.9-.68,2.34,2.34,0,0,0,1.8-2.2,2.5,2.5,0,0,0-1.37-2.09,29.19,29.19,0,0,0-4.18-2,49.39,49.39,0,0,1-6.33-3.1,13.88,13.88,0,0,1-4.39-4.32,12.42,12.42,0,0,1-1.87-7,19.81,19.81,0,0,1,.35-3.89A9.66,9.66,0,0,1,6.1,4.23,23.67,23.67,0,0,1,16.86,2,42.38,42.38,0,0,1,29.75,4,1.88,1.88,0,0,1,31.12,6.1l-.07,5.18c0,.87-.7,1.3-2.09,1.3A9.62,9.62,0,0,1,27,12.36a27.88,27.88,0,0,0-5.25-.5,11.54,11.54,0,0,0-5.08.94,3,3,0,0,0-1.91,2.88A2.86,2.86,0,0,0,16.11,18.12Z"/><path class="cls-1" d="M40.05,21.76a18,18,0,0,1,8.28-6.23,1.86,1.86,0,0,1,.79-.14,1.15,1.15,0,0,1,.93.43A1.87,1.87,0,0,1,50.42,17V31.23A9.75,9.75,0,0,0,52,36.91a4.29,4.29,0,0,0,7.63,0,9.8,9.8,0,0,0,1.58-5.65,10.62,10.62,0,0,0-1.36-5.4,4.82,4.82,0,0,0-3.46-2.67A3.16,3.16,0,0,1,55,22.7a1.31,1.31,0,0,1-.43-1.12V16a1.59,1.59,0,0,1,1.8-1.8,19.94,19.94,0,0,1,9.14,2.45,18.21,18.21,0,0,1,6.66,6.16,16,16,0,0,1,0,17.17,17.86,17.86,0,0,1-6.84,6.15,21,21,0,0,1-19,0,18.1,18.1,0,0,1-6.87-6.15,15.34,15.34,0,0,1-2.56-8.64A15.63,15.63,0,0,1,40.05,21.76Z"/><path class="cls-1" d="M101.89,17a1.59,1.59,0,0,1,1.8-1.8h9.8a1.59,1.59,0,0,1,1.8,1.8V45.63a1.59,1.59,0,0,1-1.8,1.8H104.2a1.81,1.81,0,0,1-2-1.52L102,44.4a14.34,14.34,0,0,1-4.47,2.92,12.81,12.81,0,0,1-5,1,12.65,12.65,0,0,1-9.25-3.49q-3.56-3.49-3.56-11.12V17a1.59,1.59,0,0,1,1.8-1.8h9a1.59,1.59,0,0,1,1.8,1.8V32.31A7.5,7.5,0,0,0,93.51,37a3.69,3.69,0,0,0,3.06,1.55,6.12,6.12,0,0,0,2.73-.72,9.16,9.16,0,0,0,2.59-1.94Z"/><path class="cls-1" d="M139.73,15.32a9.79,9.79,0,0,1,5.58-1.16,1.72,1.72,0,0,1,1.58,1.95v7.7c0,1.2-.62,1.8-1.87,1.8a11.88,11.88,0,0,0-7.38,1.87c-1.9,1.35-2.84,3.84-2.84,7.49V45.63a1.59,1.59,0,0,1-1.8,1.8h-9.79a1.59,1.59,0,0,1-1.8-1.8V17a1.59,1.59,0,0,1,1.8-1.8h9.28a1.7,1.7,0,0,1,1.88,1.66l.43,2.66A15.24,15.24,0,0,1,139.73,15.32Z"/><path class="cls-1" d="M153.45,21.36a15.86,15.86,0,0,1,7.92-6.12,2.4,2.4,0,0,1,.64-.14,1.2,1.2,0,0,1,1,.47,2,2,0,0,1,.36,1.26V31.66a7,7,0,0,0,1.69,5,5.35,5.35,0,0,0,4,1.77,5.18,5.18,0,0,0,4.18-2c.57-.72,1.1-1.08,1.58-1.08a1.72,1.72,0,0,1,.79.22l6,2.37c.82.29,1.22.77,1.22,1.44a2,2,0,0,1-.21.87A15.12,15.12,0,0,1,177,46.06a16,16,0,0,1-8.42,2.3,19.32,19.32,0,0,1-9.33-2.23A16.19,16.19,0,0,1,152.8,40a16.89,16.89,0,0,1-2.31-8.74A17.07,17.07,0,0,1,153.45,21.36ZM168,23.27a1.4,1.4,0,0,1-.43-1.19V16a1.52,1.52,0,0,1,1.87-1.72,18.1,18.1,0,0,1,8.28,2.26,13.33,13.33,0,0,1,5,5,1.83,1.83,0,0,1,.21.79,1.55,1.55,0,0,1-1.22,1.51l-6,2.31a4.69,4.69,0,0,1-.72.14,2.69,2.69,0,0,1-1.8-1.15,4.5,4.5,0,0,0-3.74-1.59A2.43,2.43,0,0,1,168,23.27Z"/><path class="cls-1" d="M188.4,22.62a15.54,15.54,0,0,1,6.23-6.22,20,20,0,0,1,9.94-2.31q7.49,0,11.73,4.18t4.25,12a25.08,25.08,0,0,1-.22,3.24,1.73,1.73,0,0,1-1.87,1.73H202.69a1.9,1.9,0,0,1-2-1.44,12.19,12.19,0,0,1,0-4.61,1.78,1.78,0,0,1,2-1.51h6.41a4.45,4.45,0,0,0-1.69-3.71,6.26,6.26,0,0,0-4-1.33,5.92,5.92,0,0,0-5.11,2.52,9.89,9.89,0,0,0-1.8,5.9,9.14,9.14,0,0,0,.94,4.18,7.68,7.68,0,0,0,4.28,3.38,20,20,0,0,0,7.09,1.15,30.06,30.06,0,0,0,6.27-.65,2.49,2.49,0,0,1,.65-.07,1.61,1.61,0,0,1,1.58,1.3l1.37,4.1a4.41,4.41,0,0,1,.14.8,1.41,1.41,0,0,1-1.15,1.43,41.4,41.4,0,0,1-11.59,1.73q-8.64,0-14.22-4.14t-5.58-12.71A18.34,18.34,0,0,1,188.4,22.62Z"/><path class="cls-1" d="M227.24,46.92a1.73,1.73,0,0,1-.28-1.44l5.32-38.95A1.92,1.92,0,0,1,234,4.66L244.45,3a1.7,1.7,0,0,1,2.16,1.37l7.27,25.06,3.53-12.32c.19-.81.55-1.22,1.08-1.22s.94.46,1.08,1.37l2.88,18.86a3.39,3.39,0,0,1,.07.79,5.7,5.7,0,0,1-.21,1.45l-2.38,7.55a1.9,1.9,0,0,1-2,1.52h-8.14a1.92,1.92,0,0,1-2-1.52l-5.61-18.07L240.56,45.7a1.78,1.78,0,0,1-1.87,1.73H228.61A1.71,1.71,0,0,1,227.24,46.92Zm34.93-43.7a1.67,1.67,0,0,1,1.36-.5h9.58A1.69,1.69,0,0,1,275,4.37l5.62,41.11a1.73,1.73,0,0,1-.29,1.44,1.71,1.71,0,0,1-1.37.51h-10a1.81,1.81,0,0,1-1.29-.47,1.87,1.87,0,0,1-.58-1.26l-1.58-17.5-3.6-23.54A1.71,1.71,0,0,1,262.17,3.22Z"/><path class="cls-1" d="M285.56,38.79a9.46,9.46,0,0,1,2.63-6.55,17.22,17.22,0,0,1,7.06-4.47,28.49,28.49,0,0,1,9.61-1.58l1.73.07q-1.51-2.6-5.83-2.59a16.22,16.22,0,0,0-4.47.65A19.79,19.79,0,0,0,292,26a2,2,0,0,1-1.08.29,1.58,1.58,0,0,1-1.44-.93l-2.37-4.25a2,2,0,0,1-.29-1,1.85,1.85,0,0,1,.87-1.51,27.3,27.3,0,0,1,7.09-3.31,25.6,25.6,0,0,1,7.52-1.16,20.18,20.18,0,0,1,8,1.55,13.23,13.23,0,0,1,5.76,4.57,12.38,12.38,0,0,1,2.12,7.27q0,1.38-.22,15l-.07,3.1a1.7,1.7,0,0,1-1.87,1.8h-7.13a1.59,1.59,0,0,1-1.8-1.8V36.12l.08-3.45a15.68,15.68,0,0,0-1.73-.08,8.79,8.79,0,0,0-5.15,1.27,3.48,3.48,0,0,0-1.77,2.77,2,2,0,0,0,1.3,1.87,6.63,6.63,0,0,0,1.22.29,2.64,2.64,0,0,1,1.41.43,1.46,1.46,0,0,1,.47,1.22v5.11a2,2,0,0,1-1.8,2.09,20.64,20.64,0,0,1-5,.65,12.6,12.6,0,0,1-6.55-1.62,7.64,7.64,0,0,1-3.6-4.79A12.17,12.17,0,0,1,285.56,38.79Z"/><path class="cls-1" d="M342.62,15.32a9.79,9.79,0,0,1,5.58-1.16,1.72,1.72,0,0,1,1.59,1.95v7.7a1.63,1.63,0,0,1-1.87,1.8,11.85,11.85,0,0,0-7.38,1.87c-1.9,1.35-2.85,3.84-2.85,7.49V45.63a1.59,1.59,0,0,1-1.8,1.8H326.1a1.59,1.59,0,0,1-1.8-1.8V17a1.59,1.59,0,0,1,1.8-1.8h9.29a1.7,1.7,0,0,1,1.87,1.66l.43,2.66A15.35,15.35,0,0,1,342.62,15.32Z"/><path class="cls-1" d="M354.83,45.63V3.87a1.84,1.84,0,0,1,1.65-1.95L365.2.41a1.71,1.71,0,0,1,1.4.29,1.84,1.84,0,0,1,.61,1.37L367.86,24l6.77-7.77a2.68,2.68,0,0,1,2.23-1l8.86.07c1,0,1.51.36,1.51,1.08a1.73,1.73,0,0,1-.51,1.15L369.88,37l-2,2.37v6.27a1.59,1.59,0,0,1-1.8,1.8h-9.43A1.59,1.59,0,0,1,354.83,45.63Zm18.14-5a1.93,1.93,0,0,1,.51-1.3l4-4.68a1.59,1.59,0,0,1,1.22-.72,1.49,1.49,0,0,1,1.3.87l7,10.37a1.6,1.6,0,0,1,.36,1.08c0,.71-.5,1.08-1.51,1.08l-7.06.07a2.64,2.64,0,0,1-2.16-1.15l-3.17-4.4A2.29,2.29,0,0,1,373,40.66Z"/><path class="cls-1" d="M392.16,22.62a15.54,15.54,0,0,1,6.23-6.22,20,20,0,0,1,9.93-2.31q7.5,0,11.74,4.18t4.25,12a25.08,25.08,0,0,1-.22,3.24,1.73,1.73,0,0,1-1.87,1.73H406.45a1.89,1.89,0,0,1-2-1.44,12.19,12.19,0,0,1,0-4.61,1.78,1.78,0,0,1,2-1.51h6.41a4.45,4.45,0,0,0-1.69-3.71,6.26,6.26,0,0,0-4-1.33,5.9,5.9,0,0,0-5.11,2.52,9.89,9.89,0,0,0-1.8,5.9,9.14,9.14,0,0,0,.94,4.18,7.68,7.68,0,0,0,4.28,3.38,20,20,0,0,0,7.09,1.15,30.06,30.06,0,0,0,6.27-.65,2.46,2.46,0,0,1,.64-.07,1.62,1.62,0,0,1,1.59,1.3l1.37,4.1a4.41,4.41,0,0,1,.14.8,1.41,1.41,0,0,1-1.15,1.43,41.4,41.4,0,0,1-11.59,1.73q-8.64,0-14.22-4.14T390,31.51A18.34,18.34,0,0,1,392.16,22.62Z"/><path class="cls-1" d="M447.67,15.32a9.79,9.79,0,0,1,5.58-1.16,1.72,1.72,0,0,1,1.59,1.95v7.7c0,1.2-.63,1.8-1.88,1.8a11.88,11.88,0,0,0-7.38,1.87c-1.89,1.35-2.84,3.84-2.84,7.49V45.63a1.59,1.59,0,0,1-1.8,1.8h-9.79a1.59,1.59,0,0,1-1.8-1.8V17a1.59,1.59,0,0,1,1.8-1.8h9.29a1.7,1.7,0,0,1,1.87,1.66l.43,2.66A15.24,15.24,0,0,1,447.67,15.32Z"/></g></g></svg>